<svg xmlns="http://www.w3.org/2000/svg" width="1381pt" height="404pt" viewBox="0 0 1380.73 404">
    <g class="graph">
        <path fill="#fff" d="M0 404V0h1380.73v404z"/>
        <g class="node" transform="translate(4 400)">
            <ellipse cx="617.14" cy="-378" fill="none" stroke="#000" rx="27" ry="18"/>
            <text x="617.14" y="-372.95" font-family="Times,serif" font-size="14" text-anchor="middle">:app</text>
        </g>
        <g class="node" transform="translate(4 400)">
            <ellipse cx="712.14" cy="-234" fill="none" stroke="#000" rx="41.63" ry="18"/>
            <text x="712.14" y="-228.95" font-family="Times,serif" font-size="14" text-anchor="middle">:domain</text>
        </g>
        <g stroke="#000" class="edge">
            <path fill="none" d="M631.85 39.01c16.24 24.27 47.24 70.62 66.78 99.83"/>
            <path d="m701.53 136.87 2.65 10.26-8.47-6.37z"/>
        </g>
        <g class="node" transform="translate(4 400)">
            <ellipse cx="247.14" cy="-306" fill="none" stroke="#000" rx="28.83" ry="18"/>
            <text x="247.14" y="-300.95" font-family="Times,serif" font-size="14" text-anchor="middle">:data</text>
        </g>
        <g stroke="#000" class="edge">
            <path fill="none" d="M594.44 25.36c-56.31 5.4-191.07 20.57-300.3 50.64-3.12.86-6.33 1.87-9.51 2.96"/>
            <path d="m286.05 82.17-10.6.19 8.16-6.75z"/>
        </g>
        <g class="node" transform="translate(4 400)">
            <ellipse cx="142.14" cy="-234" fill="none" stroke="#000" rx="58" ry="18"/>
            <text x="142.14" y="-228.95" font-family="Times,serif" font-size="14" text-anchor="middle">:data-remote</text>
        </g>
        <g stroke="#000" class="edge">
            <path fill="none" d="M593.79 23.82C513.2 26.66 278.26 38.08 213.14 76c-24.48 14.26-42.88 41.33-54.15 61.89"/>
            <path d="m162.18 139.35-7.72 7.26 1.51-10.49z"/>
        </g>
        <g class="node" transform="translate(4 400)">
            <ellipse cx="306.14" cy="-162" fill="none" stroke="#000" rx="49.82" ry="18"/>
            <text x="306.14" y="-156.95" font-family="Times,serif" font-size="14" text-anchor="middle">:data-local</text>
        </g>
        <g stroke="#000" class="edge">
            <path fill="none" d="M594.18 24.04C529.46 27.12 367.99 38.47 332.14 76c-33.8 35.37-31.9 96.69-27.16 132.58"/>
            <path d="m308.4 207.79-1.98 10.41-4.94-9.37z"/>
        </g>
        <g class="node" transform="translate(4 400)">
            <ellipse cx="1134.14" cy="-162" fill="none" stroke="#000" rx="63.63" ry="18"/>
            <text x="1134.14" y="-156.95" font-family="Times,serif" font-size="14" text-anchor="middle">:designsystem</text>
        </g>
        <g stroke="#000" class="edge">
            <path fill="none" d="M648.5 22.81c128.07-.61 664.15.03 713.64 53.19 60.35 64.83-83.41 120.02-167.86 145.66"/>
            <path d="m1195.32 225-10.59-.5 8.59-6.21z"/>
        </g>
        <g class="node" transform="translate(4 400)">
            <ellipse cx="422.14" cy="-18" fill="none" stroke="#000" rx="55.45" ry="18"/>
            <text x="422.14" y="-12.95" font-family="Times,serif" font-size="14" text-anchor="middle">:core:model</text>
        </g>
        <g stroke="#000" class="edge">
            <path fill="none" d="M593.75 23.33C499.37 24.85 188.57 33.07 100.14 76c-49.48 24.02-86 33.99-86 89v74c0 23.58-61.43 12.44 122 89 73.21 30.56 164.09 43.54 224.39 49.03"/>
            <path d="m360.63 373.53 9.66 4.34-10.26 2.63z"/>
        </g>
        <g class="node" transform="translate(4 400)">
            <ellipse cx="1199.14" cy="-234" fill="none" stroke="#000" rx="39.07" ry="18"/>
            <text x="1199.14" y="-228.95" font-family="Times,serif" font-size="14" text-anchor="middle">:core:ui</text>
        </g>
        <g stroke="#000" class="edge">
            <path fill="none" d="M648.41 23.77c106.55 3.27 490.89 17.4 531.73 52.23 17.17 14.65 22.39 40.28 23.62 60.29"/>
            <path d="m1207.25 135.97-3.21 10.09-3.79-9.89z"/>
        </g>
        <g class="node" transform="translate(4 400)">
            <ellipse cx="1097.14" cy="-90" fill="none" stroke="#000" rx="65.17" ry="18"/>
            <text x="1097.14" y="-84.95" font-family="Times,serif" font-size="14" text-anchor="middle">:core:common</text>
        </g>
        <g stroke="#000" class="edge">
            <path fill="none" d="M594.49 25.85c-31.83 4.82-84.6 17.48-115.35 50.15-56.17 59.68-32.87 142.49 40 180 86.15 44.34 367.74 52.02 505.16 53.06"/>
            <path d="m1024.05 305.56 9.98 3.56-10.02 3.44z"/>
        </g>
        <g class="node" transform="translate(4 400)">
            <ellipse cx="919.14" cy="-234" fill="none" stroke="#000" rx="70.8" ry="18"/>
            <text x="919.14" y="-228.95" font-family="Times,serif" font-size="14" text-anchor="middle">:core:navigation</text>
        </g>
        <g stroke="#000" class="edge">
            <path fill="none" d="M647.89 25.73C688.13 30.75 765.63 44.02 823.14 76c20.33 11.31 20.71 20.44 38 36 10.77 9.7 22.84 20.11 33.44 29.12"/>
            <path d="m896.56 138.2 5.37 9.13-9.89-3.78z"/>
        </g>
        <g class="node" transform="translate(4 400)">
            <ellipse cx="100.14" cy="-162" fill="none" stroke="#000" rx="62.1" ry="18"/>
            <text x="100.14" y="-156.95" font-family="Times,serif" font-size="14" text-anchor="middle">:core:network</text>
        </g>
        <g stroke="#000" class="edge">
            <path fill="none" d="M593.94 24.31C508.96 28.68 249.51 44.36 172.14 76c-48.39 19.78-69.98 25.07-93 72-9.69 19.75-1.83 43.87 7.56 62.02"/>
            <path d="m89.68 208.19 1.86 10.43-7.96-7z"/>
        </g>
        <g class="node" transform="translate(4 400)">
            <ellipse cx="549.14" cy="-234" fill="none" stroke="#000" rx="64.66" ry="18"/>
            <text x="549.14" y="-228.95" font-family="Times,serif" font-size="14" text-anchor="middle">:core:analytics</text>
        </g>
        <g stroke="#000" class="edge">
            <path fill="none" d="M594.14 25.19c-31.29 4.14-81.56 16.13-105 50.81-8.96 13.25-6.81 21.52 0 36 5.74 12.22 15.84 22.59 26.34 30.82"/>
            <path d="m517.44 139.92 6.05 8.7-10.16-3.03z"/>
        </g>
        <g class="node" transform="translate(4 400)">
            <ellipse cx="753.14" cy="-306" fill="none" stroke="#000" rx="57.49" ry="18"/>
            <text x="753.14" y="-300.95" font-family="Times,serif" font-size="14" text-anchor="middle">:feature:auth</text>
        </g>
        <g stroke="red" stroke-width="2" class="edge">
            <path fill="none" d="M642.09 33.78c20.15 10.37 51.1 26.3 75.82 39.03"/>
            <path fill="red" d="m718.1 68.97 7.29 7.69-10.49-1.47z"/>
        </g>
        <g class="node" transform="translate(4 400)">
            <ellipse cx="923.14" cy="-306" fill="none" stroke="#000" rx="57.49" ry="18"/>
            <text x="923.14" y="-300.95" font-family="Times,serif" font-size="14" text-anchor="middle">:feature:vote</text>
        </g>
        <g stroke="#000" class="edge">
            <path fill="none" d="M646.55 28.62C689.68 38.17 779.96 58.29 856.14 76c4.92 1.14 10.04 2.35 15.16 3.56"/>
            <path d="m872.07 76.14 8.92 5.72-10.53 1.09z"/>
        </g>
        <g class="node" transform="translate(4 400)">
            <ellipse cx="567.14" cy="-306" fill="none" stroke="#000" rx="73.36" ry="18"/>
            <text x="567.14" y="-300.95" font-family="Times,serif" font-size="14" text-anchor="middle">:feature:message</text>
        </g>
        <g stroke="#000" class="edge">
            <path fill="none" d="m610.04 38.54-20.27 28.38"/>
            <path d="m592.79 68.7-8.66 6.11 2.97-10.18z"/>
        </g>
        <g class="node" transform="translate(4 400)">
            <ellipse cx="1286.14" cy="-306" fill="none" stroke="#000" rx="62.61" ry="18"/>
            <text x="1286.14" y="-300.95" font-family="Times,serif" font-size="14" text-anchor="middle">:feature:entire</text>
        </g>
        <g stroke="#000" class="edge">
            <path fill="none" d="M648.43 24.2c84.4 3.97 348.51 18.4 564.71 51.8 6.32.98 12.91 2.17 19.45 3.45"/>
            <path d="m1232.92 75.95 9.09 5.44-10.5 1.41z"/>
        </g>
        <g class="node" transform="translate(4 400)">
            <ellipse cx="1083.14" cy="-306" fill="none" stroke="#000" rx="84.11" ry="18"/>
            <text x="1083.14" y="-300.95" font-family="Times,serif" font-size="14" text-anchor="middle">:feature:notification</text>
        </g>
        <g stroke="#000" class="edge">
            <path fill="none" d="M647.8 26.45C708.96 34.44 864.02 55.13 993.14 76c6.82 1.1 13.91 2.3 21.01 3.52"/>
            <path d="m1014.52 76.03 9.24 5.18-10.45 1.72z"/>
        </g>
        <g stroke="#000" class="edge">
            <path fill="none" d="M695.75 182.05C645.67 219 516.43 314.37 456.94 358.27"/>
            <path d="m459.02 361.08-10.12 3.12 5.97-8.75z"/>
        </g>
        <g stroke="#000" class="edge">
            <path fill="none" d="M279.51 98.52c62.79 7.89 218.21 28.01 347.63 49.48 13.2 2.19 27.46 4.8 40.61 7.31"/>
            <path d="m668.33 151.86 9.15 5.33-10.48 1.54z"/>
        </g>
        <g stroke="#000" class="edge">
            <path fill="none" d="M231.88 107.84c-14.79 9.86-35.55 23.7-52.94 35.29"/>
            <path d="m181.21 145.83-10.27 2.63 6.38-8.46z"/>
        </g>
        <g stroke="#000" class="edge">
            <path fill="none" d="M258.14 111.85c9.97 23.99 28.38 68.31 40.41 97.25"/>
            <path d="m301.78 207.76.6 10.57-7.07-7.89z"/>
        </g>
        <g stroke="#000" class="edge">
            <path fill="none" d="M246.52 112.05C239.21 142.67 228 208.2 251.14 256c25.64 52.98 86.06 88.11 128.7 107.28"/>
            <path d="m381.11 360.02 7.77 7.19-10.57-.77z"/>
        </g>
        <g stroke="#000" class="edge">
            <path fill="none" d="M279.67 97.87c78.05 7.86 301.64 30.46 487.47 50.13 26.31 2.79 55.11 5.9 80.73 8.7"/>
            <path d="m847.95 153.19 9.56 4.57-10.32 2.39z"/>
        </g>
        <g stroke="#000" class="edge">
            <path fill="none" d="M156.08 183.91c5.86 10.28 13.25 23.75 19.06 36.09 21.99 46.75 4.18 73.91 43 108 38.76 34.05 96.43 46.77 141.22 51.27"/>
            <path d="m359.58 375.78 9.66 4.36-10.27 2.61z"/>
        </g>
        <g stroke="#000" class="edge">
            <path fill="none" d="M135.97 183.95c-4.8 7.99-10.63 17.72-15.99 26.65"/>
            <path d="m123.14 212.14-8.15 6.77 2.14-10.37z"/>
        </g>
        <g stroke="#000" class="edge">
            <path fill="none" d="M321.21 255.97c12.22 18.34 32.83 48.15 52.93 72.03 8.18 9.72 17.76 19.8 26.46 28.54"/>
            <path d="m402.86 353.85 4.65 9.52-9.57-4.54z"/>
        </g>
        <g stroke="#000" class="edge">
            <path fill="none" d="M356.43 245.09c27.25 3.47 62.41 7.74 93.71 10.91 208.74 21.16 455.82 39.42 576.77 47.92"/>
            <path d="m1026.98 300.41 9.73 4.19-10.22 2.8z"/>
        </g>
        <g stroke="red" stroke-width="2" class="edge">
            <path fill="none" d="M1128.99 256.3c-4.08 7.72-8.98 16.99-13.52 25.59"/>
            <path fill="red" d="m1119.36 282.01-7.77 7.21 1.58-10.48z"/>
        </g>
        <g stroke="red" stroke-width="2" class="edge">
            <path fill="none" d="M1188.39 182.88c-8 8.61-18.06 19.45-27.08 29.16"/>
            <path fill="red" d="m1165.16 213.04-9.36 4.94 4.23-9.71z"/>
        </g>
        <g stroke="#000" class="edge">
            <path fill="none" d="M1214.03 183.52c10.44 17.95 23.46 47.44 15.11 72.48-12.65 37.95-18.88 52.86-54 72-59.06 32.19-509.69 46.92-682.16 51.43"/>
            <path d="m493.14 382.92-10.08-3.24 9.9-3.75z"/>
        </g>
        <g stroke="#000" class="edge">
            <path fill="none" d="M1210.36 183.84c6.96 19.03 14.56 50.22.78 72.16-11.28 17.95-30.52 29.96-49.8 37.94"/>
            <path d="m1162.69 297.17-10.59.26 8.12-6.81z"/>
        </g>
        <g stroke="red" stroke-width="2" class="edge">
            <path fill="none" d="M1052.85 322.38c-10.11 2.1-20.73 4.11-30.71 5.62-191.46 29-420.09 43.87-530.25 49.81"/>
            <path fill="red" d="m493.84 381.21-10.18-2.97 9.8-4.02z"/>
        </g>
        <g stroke="#000" class="edge">
            <path fill="none" d="M113.84 256.03c12.58 20.43 36.46 54.16 66.3 71.97 54.84 32.73 127.27 45.37 179.32 50.18"/>
            <path d="m359.72 374.69 9.67 4.33-10.26 2.64z"/>
        </g>
        <g stroke="#000" class="edge">
            <path fill="none" d="M747.21 111.95c-4.63 7.91-10.26 17.51-15.44 26.36"/>
            <path d="m734.81 140.05-8.07 6.85 2.03-10.39z"/>
        </g>
        <g stroke="#000" class="edge">
            <path fill="none" d="M771.19 111.85c19.7 23.19 54.98 63.1 71.95 72.15 68.61 36.61 157.65 48.54 219.88 52.12"/>
            <path d="m1063 232.62 9.81 4-10.17 2.99z"/>
        </g>
        <g stroke="#000" class="edge">
            <path fill="none" d="M727.44 109.8c-18.58 9.82-42.65 23.55-62.3 38.2-18.66 13.9-20.54 20.62-38 36-56.89 50.1-79.11 53.7-132 108-19.08 19.59-37.91 44.34-51.07 62.76"/>
            <path d="m447.05 356.62-8.62 6.16 2.9-10.19z"/>
        </g>
        <g stroke="red" stroke-width="2" class="edge">
            <path fill="none" d="M807.11 103.26c17.13 2.8 36.41 5.94 54.03 8.74 104.81 16.69 227.81 35.58 294 45.69"/>
            <path fill="red" d="m1154.08 153.99 9.36 4.97-10.42 1.95z"/>
        </g>
        <g stroke="#000" class="edge">
            <path fill="none" d="M761.67 112.3c6 19.75 18.34 51.89 39.47 71.7 67.02 62.84 170.15 96.31 236.34 112.35"/>
            <path d="m1038.18 292.92 8.93 5.7-10.53 1.11z"/>
        </g>
        <g stroke="#000" class="edge">
            <path fill="none" d="M790.33 109c24.89 10.49 59.27 24.99 86.81 36.6"/>
            <path d="m878.46 142.36 7.85 7.11-10.57-.66z"/>
        </g>
        <g stroke="#000" class="edge">
            <path fill="none" d="M719.25 108c-32.58 11.18-79.84 27.4-115.62 39.68"/>
            <path d="m604.94 150.92-10.59-.06 8.32-6.56z"/>
        </g>
        <g stroke="#000" class="edge">
            <path fill="none" d="M888.93 107.68c-36.54 12.12-91.55 30.37-129.64 43.01"/>
            <path d="m760.56 153.95-10.59-.17 8.39-6.48z"/>
        </g>
        <g stroke="#000" class="edge">
            <path fill="none" d="M968.46 106.89c37.24 11.25 88.68 28.28 105.68 41.11 21.76 16.43 39.2 42.34 50.35 61.98"/>
            <path d="m1127.44 208.08 1.72 10.46-7.86-7.11z"/>
        </g>
        <g stroke="#000" class="edge">
            <path fill="none" d="M960.35 109.06c16.02 8.69 33.71 21.54 42.79 38.94 7.4 14.19 9.31 22.99 0 36C884.6 349.73 618.1 377.61 493.17 381.24"/>
            <path d="m493.48 384.73-10.08-3.25 9.91-3.74z"/>
        </g>
        <g stroke="#000" class="edge">
            <path fill="none" d="M970.87 106.09c51.3 13.01 135.88 34.46 187.59 47.58"/>
            <path d="m1159.29 150.27 8.84 5.85-10.56.93z"/>
        </g>
        <g stroke="#000" class="edge">
            <path fill="none" d="M970.13 106.4c22.67 8.1 49.19 21.24 66.01 41.6 31.64 38.32 8.3 62.81 29 108 4.26 9.3 10.11 18.77 15.85 27.07"/>
            <path d="m1083.69 280.82 3.01 10.16-8.69-6.06z"/>
        </g>
        <g stroke="#000" class="edge">
            <path fill="none" d="M926.15 112.3c-.42 7.29-.91 15.97-1.38 24.16"/>
            <path d="m928.27 136.6-4.07 9.78-2.92-10.18z"/>
        </g>
        <g stroke="#000" class="edge">
            <path fill="none" d="M878.63 104.08c-66.93 12.53-187.7 35.13-261.82 49"/>
            <path d="m617.74 156.47-10.47-1.6 9.18-5.28z"/>
        </g>
        <g stroke="#000" class="edge">
            <path fill="none" d="M603.32 110.54c22.43 10.82 52.41 25.3 75.82 36.6"/>
            <path d="m680.54 143.93 7.49 7.5-10.53-1.2z"/>
        </g>
        <g stroke="#000" class="edge">
            <path fill="none" d="M527.81 108.82c-18.42 8.27-38.06 20.83-48.67 39.18-8.01 13.85-10.85 24.24 0 36 38.91 42.17 419.06 50.8 583.66 52.55"/>
            <path d="m1062.79 233.05 9.97 3.6-10.04 3.4z"/>
        </g>
        <g stroke="#000" class="edge">
            <path fill="none" d="M526.81 108.76c-22.67 8.64-49.64 21.54-69.67 39.24-28.28 24.99-34.6 35.73-45 72-12.95 45.16-2.97 100.12 5.48 132.74"/>
            <path d="m420.95 351.66-.73 10.57-6.02-8.72z"/>
        </g>
        <g stroke="#000" class="edge">
            <path fill="none" d="M632.74 104.18c18.74 2.67 39.39 5.49 58.4 7.82 169.31 20.75 370.79 40.02 462.33 48.48"/>
            <path d="m1153.72 156.99 9.64 4.41-10.28 2.56z"/>
        </g>
        <g stroke="#000" class="edge">
            <path fill="none" d="M522.24 107.77c-20.43 8.01-42.16 20.66-54.1 40.23-8.33 13.66-10.16 23.64 0 36 69.91 85.06 405.7 113.19 557.82 121.67"/>
            <path d="m1025.72 302.15 9.8 4.04-10.18 2.95z"/>
        </g>
        <g stroke="#000" class="edge">
            <path fill="none" d="M626.91 106.09c62.58 12.45 164.01 32.62 230.42 45.82"/>
            <path d="m857.88 148.45 9.13 5.39-10.49 1.48z"/>
        </g>
        <g stroke="#000" class="edge">
            <path fill="none" d="M566.69 112.3c-1.9 7.38-4.16 16.18-6.29 24.45"/>
            <path d="m563.79 137.62-5.88 8.81-.9-10.56z"/>
        </g>
        <g stroke="#000" class="edge">
            <path fill="none" d="M1236.78 103.76c-17.97 2.81-38.15 5.82-56.64 8.24-149.36 19.51-187.45 18.01-337 36-25.23 3.03-53.22 6.75-76.49 9.92"/>
            <path d="m767.18 161.38-10.39-2.1 9.43-4.83z"/>
        </g>
        <g stroke="#000" class="edge">
            <path fill="none" d="M1286.49 112.13c-4.96 19.59-15.57 51.58-35.35 71.87-15.9 16.31-37.79 28.16-58.08 36.47"/>
            <path d="m1194.33 223.73-10.59.33 8.07-6.86z"/>
        </g>
        <g stroke="#000" class="edge">
            <path fill="none" d="M1295.32 112.01c8.24 29.99 21.78 93.85 4.82 143.99-12.9 38.15-19.5 52.99-55 72-65.53 35.08-568.29 48.18-752.04 51.83"/>
            <path d="m493.31 383.33-10.07-3.31 9.93-3.69z"/>
        </g>
        <g stroke="#000" class="edge">
            <path fill="none" d="M1269.96 111.24c-11.63 9.36-26.43 21.26-39.13 31.48"/>
            <path d="m1233.18 145.32-9.99 3.54 5.6-8.99z"/>
        </g>
        <g stroke="#000" class="edge">
            <path fill="none" d="M1290.98 112.47c.6 32.48-2.84 102.55-39.84 143.53-20.59 22.8-51.61 35.8-80.1 43.2"/>
            <path d="m1171.86 302.6-10.53-1.09 8.91-5.72z"/>
        </g>
        <g stroke="#000" class="edge">
            <path fill="none" d="M1239.11 104.73c-65.06 12.41-177.69 33.9-249.43 47.58"/>
            <path d="m990.49 155.72-10.47-1.57 9.16-5.31z"/>
        </g>
        <g stroke="#000" class="edge">
            <path fill="none" d="M1025.46 106.64c-73.14 13.8-193.54 36.51-260.52 49.15"/>
            <path d="m765.84 159.18-10.48-1.58 9.18-5.29z"/>
        </g>
        <g stroke="#000" class="edge">
            <path fill="none" d="M1096.17 112.37c5.1 10.2 11.35 23.45 15.97 35.63 7.55 19.91 14.24 43 18.94 60.67"/>
            <path d="m1134.43 207.65-.87 10.56-5.91-8.8z"/>
        </g>
        <g stroke="#000" class="edge">
            <path fill="none" d="M1152.16 105.63c45.95 8.99 101.79 23.44 115.98 42.37 50.47 67.38 12.54 135.63-59 180-60.12 37.29-538.06 48.96-716.3 52.03"/>
            <path d="m493.11 383.53-10.05-3.33 9.94-3.67z"/>
        </g>
        <g stroke="#000" class="edge">
            <path fill="none" d="M1114.33 111.41c16.84 10.16 38.56 23.27 56.3 33.97"/>
            <path d="m1171.97 142.11 6.76 8.16-10.37-2.17z"/>
        </g>
        <g stroke="#000" class="edge">
            <path fill="none" d="M1165.71 100.72c31.85 6.65 65.71 20.18 85.43 47.28 18.64 25.62-17.02 102.52-22 108-17.17 18.9-42.12 31.25-65.44 39.21"/>
            <path d="m1164.81 298.53-10.59-.31 8.47-6.36z"/>
        </g>
        <g stroke="#000" class="edge">
            <path fill="none" d="M1050.74 110.54c-24.22 10.33-56.22 23.99-82.11 35.04"/>
            <path d="m970.27 148.69-10.57.7 7.82-7.14z"/>
        </g>
    </g>
</svg>
